<svg width="70px" height="44px" viewBox="0 0 70 44" version="1.1" xmlns="http://www.w3.org/2000/svg" xmlns:xlink="http://www.w3.org/1999/xlink">
    <defs/>
    <g id="Homepage" stroke="none" stroke-width="1" fill="none" fill-rule="evenodd">
        <g transform="translate(-585.000000, -152.000000)" id="Group-4" fill-rule="nonzero" fill="#333">
            <g transform="translate(418.000000, 152.000000)">
                <g id="Group-2">
                    <g id="organize-agile" transform="translate(167.000000, 0.000000)">
                        <path d="M17.2090592,32 L2.16550523,32 C0.969529714,32 1.46272851e-16,32.8954305 0,34 C-1.39624085e-16,35.1045695 0.969529714,36 2.16550523,36 L22,36 C20.1764929,34.9181271 18.5579359,33.5667792 17.2090592,32 Z" id="Shape"/>
                        <path d="M60.1003453,24.5099896 L56.9442178,27.6291662 L61.4529714,32.0851328 L33.1262367,32.0851328 C26.2509136,31.9254838 20.5083948,26.859656 19.5701727,20.1264978 C18.6319505,13.3933395 22.7752083,6.9820588 29.3509448,4.99172239 C35.9266813,3.00138598 42.9921965,6.02000814 46.0301372,12.117626 C49.0680779,18.2152438 47.1809313,25.59041 41.5752489,29.5277954 L47.9855204,29.5277954 C54.2217214,21.6858793 52.9326509,10.3485632 45.090937,4.07006677 C37.249223,-2.20842964 25.7597905,-1.10226789 19.2916337,6.55393206 C12.8234768,14.210132 13.772693,25.580168 21.4230806,32.0851328 C24.1987303,34.6125974 27.7554782,36.1414981 31.5187681,36.4248568 C31.9304369,36.4248568 32.3617089,36.4248568 32.792981,36.4248568 L61.4529714,36.4248568 L56.9442178,40.8808234 L60.1003453,44 L70,34.2937423 L60.1003453,24.5099896 Z" id="Shape"/>
                    </g>
                </g>
            </g>
        </g>
    </g>
</svg>