<svg id="selenium_logo" width="32.5" height="34" data-name="Selenium Logo" version="1.1" viewBox="0 0 32.5 34" xmlns="http://www.w3.org/2000/svg">
 <defs>
  <style>.cls-selenium_logo{fill:#43b02a}</style>
 </defs>
 <path class="cls-selenium_logo" d="m21.45 21.51a2.49 2.49 0 0 0-2.55 2.21 0.08 0.08 0 0 0 0.08 0.1h4.95a0.08 0.08 0 0 0 0.08-0.09 2.41 2.41 0 0 0-2.56-2.22z"/>
 <path class="cls-selenium_logo" d="m32.06 4.91-10.5 11.79a0.32 0.32 0 0 1-0.47 0l-5.36-5.53a0.32 0.32 0 0 1 0-0.4l1.77-2.27a0.32 0.32 0 0 1 0.52 0l3 3.32a0.32 0.32 0 0 0 0.49 0l8.36-11.46a0.23 0.23 0 0 0-0.18-0.36h-29.44a0.25 0.25 0 0 0-0.25 0.25v33.5a0.25 0.25 0 0 0 0.25 0.25h32a0.25 0.25 0 0 0 0.25-0.25v-28.69a0.23243 0.23243 0 0 0-0.44-0.15zm-23 25.36a8.08 8.08 0 0 1-5.74-2 0.31 0.31 0 0 1 0-0.41l1.25-1.75a0.31 0.31 0 0 1 0.43-0.11 6.15 6.15 0 0 0 4.2 1.64c1.64 0 2.44-0.76 2.44-1.56 0-2.48-8.08-0.78-8.08-6.06 0-2.33 2-4.27 5.32-4.27a7.88 7.88 0 0 1 5.25 1.76 0.31 0.31 0 0 1 0 0.43l-1.23 1.71a0.31 0.31 0 0 1-0.45 0.05 6.08 6.08 0 0 0-3.84-1.32c-1.28 0-2 0.57-2 1.41 0 2.23 8.06 0.74 8.06 6 0 2.54-1.83 4.48-5.62 4.48zm17.62-4.87a0.27 0.27 0 0 1-0.28 0.28h-7.4a0.09 0.09 0 0 0-0.08 0.1 2.81 2.81 0 0 0 3 2.32 4.62 4.62 0 0 0 2.56-0.84 0.27 0.27 0 0 1 0.4 0.06l0.9 1.31a0.28 0.28 0 0 1-0.06 0.37 6.67 6.67 0 0 1-4.1 1.28 5.28 5.28 0 0 1-5.57-5.48 5.31 5.31 0 0 1 5.4-5.46c3.11 0 5.22 2.33 5.22 5.74z"/>
</svg>
