<svg width="871" height="968" version="1.1" viewBox="0 0 871 968" xmlns="http://www.w3.org/2000/svg">
 <path d="m842.34 743.35-389.4 220.29v-171.54l242.63-133.5zm26.675-24.122v-460.62l-142.44 82.322v296.1zm-839.68 24.122 389.4 220.29v-171.54l-242.75-133.5zm-26.675-24.122v-460.62l142.44 82.322v296.1zm16.72-490.49 399.36-225.91v165.79l-255.9 140.78-2.0421 1.1487zm832.92 0-399.36-225.91v165.79l255.9 140.65 2.0421 1.1487z" fill="#8ed6fb" stroke-width="1.2763"/>
 <path d="m418.73 753.05-239.44-131.71v-260.75l239.44 138.22zm34.205 0 239.44-131.59v-260.88l-239.44 138.22zm-17.103-264.2m-240.33-158.39 240.33-132.1 240.33 132.1-240.33 138.73z" fill="#1c78c0" stroke-width="1.2763"/>
</svg>
