<?xml version="1.0" encoding="UTF-8"?>
<svg width="210mm" height="238mm" version="1.1" viewBox="0 0 210 238" xmlns="http://www.w3.org/2000/svg">
<g transform="matrix(.13263 0 0 .13221 -27.631 -13.386)">
<polygon points="352.73 1718.4 208.63 101.98 1791.4 101.98 1647.1 1718.5 999.62 1898" fill="#e34e26"/>
<polygon points="1646.9 234.11 1e3 234.11 1e3 1760.7 1523.6 1615.6" fill="#ef662a"/>
<polygon points="565.16 1124 593.61 1442.3 999.7 1555.1 1406.3 1442.3 1460.8 833.67 738.23 833.67 720.09 630.65 1478.2 630.65 1478.8 630.65 1496.5 432.38 503.47 432.38 556.91 1031.9 1244 1031.9 1221 1289 999.74 1348.9 778.92 1289.1 764.16 1124" fill="#fff"/>
<g fill="#ebebeb">
<polygon points="1e3 1031.9 1e3 833.67 738.23 833.67 720.09 630.65 1e3 630.65 1e3 432.38 503.47 432.38 556.91 1031.9"/>
<polygon points="764.16 1124 565.16 1124 593.61 1442.3 999.7 1555.1 1e3 1555 1e3 1348.8 999.74 1348.9 778.92 1289.1"/>
</g>
</g>
</svg>
